<svg width="54" height="54" viewBox="0 0 54 54" fill="none" xmlns="http://www.w3.org/2000/svg">
<rect y="0.333496" width="53.3333" height="53.3333" rx="26.6667" fill="#F6F6F6"/>
<path d="M10.3725 13.9744C10.8459 13.1315 11.5292 12.4129 12.3621 11.8819L26.3394 2.55566L12.0179 25.1839C12.0179 25.1839 10.7666 23.1632 10.2786 22.1408C9.67045 20.8554 9.36375 19.4583 9.37996 18.0477C9.39617 16.637 9.73493 15.2469 10.3725 13.9744ZM4.60384 29.584C4.76166 31.7479 5.4015 33.8547 6.48052 35.763C7.55956 37.6715 9.05287 39.3377 10.8605 40.6499L26.3206 50.9507C26.3206 50.9507 16.6478 37.6309 8.48921 24.3768C7.66323 22.9765 7.10795 21.4455 6.84997 19.8571C6.73576 19.1378 6.73576 18.4063 6.84997 17.687C6.63724 18.0637 6.2243 18.8349 6.2243 18.8349C5.39705 20.447 4.83365 22.1709 4.55379 23.9464C4.3927 25.8232 4.40946 27.71 4.60384 29.584ZM44.0205 31.3774C43.5201 30.3552 42.2812 28.3345 42.2812 28.3345L27.9849 50.9507L41.9622 41.6304C42.795 41.0995 43.4783 40.3809 43.9517 39.538C44.5893 38.2656 44.928 36.8753 44.9442 35.4647C44.9605 34.054 44.6538 32.657 44.0456 31.3715L44.0205 31.3774ZM49.6953 23.9284C49.5375 21.7645 48.8976 19.6578 47.8186 17.7493C46.7395 15.8408 45.2462 14.1747 43.4387 12.8624L28.0036 2.55566C28.0036 2.55566 37.6701 15.8755 45.835 29.1296C46.6588 30.5303 47.2119 32.0612 47.4679 33.6493C47.5822 34.3686 47.5822 35.1001 47.4679 35.8194C47.6807 35.4428 48.0937 34.6715 48.0937 34.6715C48.9209 33.0595 49.4843 31.3355 49.7641 29.56C49.9273 27.6834 49.9127 25.7966 49.7203 23.9224L49.6953 23.9284Z" fill="url(#paint0_linear_71_154)"/>
<defs>
<linearGradient id="paint0_linear_71_154" x1="34.706" y1="56.6865" x2="-13.8051" y2="-23.4718" gradientUnits="userSpaceOnUse">
<stop stop-color="#44BCF0"/>
<stop offset="0.428185" stop-color="#628BF3"/>
<stop offset="1" stop-color="#A099FF"/>
</linearGradient>
</defs>
</svg>
